<svg width="31" height="16" viewBox="0 0 31 16" fill="none" xmlns="http://www.w3.org/2000/svg">
<path d="M30.3865 3.1705L16.6451 15.5944C16.4815 15.7419 16.3043 15.8466 16.1135 15.9085C15.9226 15.9705 15.7181 16.001 15.5 16C15.2819 16 15.0774 15.969 14.8865 15.9071C14.6957 15.8451 14.5185 15.7409 14.3549 15.5944L0.572559 3.1705C0.190853 2.82642 0 2.39631 0 1.88018C0 1.36405 0.204485 0.921657 0.613456 0.552994C1.02243 0.184331 1.49956 0 2.04485 0C2.59015 0 3.06728 0.184331 3.47625 0.552994L15.5 11.3917L27.5237 0.552994C27.9055 0.208908 28.376 0.0368643 28.9355 0.0368643C29.495 0.0368643 29.9787 0.221196 30.3865 0.589859C30.7955 0.958522 31 1.38863 31 1.88018C31 2.37173 30.7955 2.80184 30.3865 3.1705Z" fill="#969EAB"/>
</svg>
