<svg width="1064" height="1080" viewBox="0 0 1064 1080" fill="none" xmlns="http://www.w3.org/2000/svg">
<path opacity="0.02" fill-rule="evenodd" clip-rule="evenodd" d="M970.932 1135.26L972.751 1141.85L972.751 1141.85C976.908 1156.91 981.699 1174.26 986.556 1191.6C987.46 1194.84 986.787 1197.07 984.05 1199.1C980.333 1201.87 976.797 1204.9 973.318 1207.96C946.559 1231.54 926.004 1259.67 911.543 1292.27C910.958 1293.58 910.397 1294.91 909.836 1296.24L909.835 1296.25C909.042 1298.12 908.25 1300 907.388 1301.84C907.185 1302.28 906.686 1302.58 906.187 1302.88C905.963 1303.01 905.738 1303.15 905.54 1303.29C905.453 1303.14 905.355 1302.98 905.256 1302.83C905.041 1302.49 904.827 1302.16 904.744 1301.79C904.258 1299.64 903.804 1297.48 903.35 1295.33C902.552 1291.53 901.753 1287.74 900.781 1283.99C889.782 1241.56 878.765 1199.13 867.748 1156.71L867.664 1156.38L867.649 1156.32C856.595 1113.75 845.541 1071.19 834.507 1028.62C809.522 932.244 784.582 835.869 759.648 739.483C753.446 715.516 747.26 691.546 741.074 667.576L741.057 667.507C733.033 636.417 725.01 605.328 716.951 574.246C710.026 547.54 703.068 520.842 696.11 494.144L696.108 494.138C687.987 462.977 679.866 431.816 671.797 400.644C662.208 363.596 652.655 326.538 643.102 289.48C633.02 250.371 622.938 211.262 612.815 172.164C603.312 135.443 593.756 98.7374 584.2 62.0313L584.143 61.8143C577.119 34.8318 570.094 7.84924 563.091 -19.1392C541.087 -103.936 519.112 -188.741 497.136 -273.551L497.093 -273.719C492.654 -290.849 488.215 -307.98 483.776 -325.111C482.322 -330.726 480.9 -336.359 479.674 -342.038C478.893 -345.644 479.681 -346.584 483.377 -347.498C483.873 -347.619 484.387 -347.695 484.897 -347.771L485.092 -347.8C501.32 -350.245 515.304 -357.672 528.274 -367.294C547.879 -381.84 563.555 -399.944 576.436 -420.573C576.931 -421.365 577.416 -422.164 577.901 -422.965C578.921 -424.647 579.942 -426.33 581.056 -427.949C581.469 -428.548 582.106 -428.991 582.742 -429.434L582.743 -429.434C583.03 -429.634 583.317 -429.834 583.583 -430.048C583.769 -429.771 583.991 -429.502 584.212 -429.232L584.212 -429.232C584.686 -428.655 585.159 -428.08 585.281 -427.436C586.047 -423.421 586.76 -419.393 587.472 -415.366L587.474 -415.357L587.475 -415.353C588.126 -411.671 588.777 -407.989 589.469 -404.317C591.125 -395.51 592.759 -386.698 594.392 -377.886L594.393 -377.883C598.577 -355.313 602.76 -332.741 607.329 -310.249C612.931 -282.668 619.194 -255.216 625.498 -227.776C632.033 -199.347 638.709 -170.953 645.384 -142.56L645.39 -142.533C648.543 -129.124 651.695 -115.715 654.833 -102.303C655.544 -99.2574 656.227 -96.2057 656.909 -93.1542L656.911 -93.1478C657.685 -89.688 658.459 -86.2285 659.274 -82.7776C659.437 -82.0908 660.183 -81.0592 660.684 -81.0442C661.312 -81.028 662.232 -81.7523 662.558 -82.4026C663.136 -83.5331 663.503 -84.7833 663.866 -86.0208L663.866 -86.0219C663.912 -86.1777 663.957 -86.3334 664.003 -86.4886C668.092 -100.307 672.197 -114.122 676.302 -127.936L676.32 -127.998C695.103 -191.205 713.886 -254.414 731.077 -318.082C741.889 -358.152 751.427 -398.52 760.306 -439.049L760.325 -439.133C762.316 -448.216 762.353 -448.384 771.511 -449.664C785.622 -451.632 798.198 -457.287 809.937 -465.086C828.563 -477.455 843.564 -493.457 856.72 -511.361C857.15 -511.947 857.505 -512.618 857.862 -513.294L857.863 -513.294V-513.294C858.819 -515.103 859.794 -516.947 862.288 -517.301C862.552 -516.521 862.836 -515.747 863.119 -514.973L863.12 -514.97L863.12 -514.969C863.725 -513.317 864.329 -511.665 864.749 -509.967C873.73 -473.925 882.68 -437.865 891.593 -401.804C892.178 -399.434 892.775 -397.066 893.372 -394.698L893.372 -394.697C895.47 -386.371 897.569 -378.039 899.173 -369.62C900.628 -361.972 901.531 -354.099 901.614 -346.316C902.091 -298.679 905.811 -251.307 912.026 -204.091C916.345 -171.286 921.879 -138.69 928.202 -106.214C938.536 -53.1531 952.158 -0.94696 968.769 50.4688C983.144 94.9764 1000.11 138.477 1021.42 180.174C1024.75 186.702 1028.43 193.056 1032.1 199.41L1032.1 199.415C1033.94 202.592 1035.77 205.769 1037.57 208.968C1037.81 209.398 1038.06 209.827 1038.31 210.258L1038.31 210.264C1039.22 211.842 1040.15 213.433 1040.71 215.129C1041.41 217.237 1042.11 219.344 1042.82 221.451C1045.53 229.527 1048.24 237.611 1050.51 245.812C1063.77 293.872 1077 341.942 1090.23 390.011C1106.12 447.726 1122 505.44 1137.94 563.137C1140.21 571.329 1139.87 578.848 1137.15 586.919C1096.96 706.273 1056.93 825.681 1016.99 945.12C1016.21 947.451 1015.51 949.321 1014.94 950.848C1013.69 954.229 1013.05 955.932 1013.51 957.255C1013.98 958.599 1015.58 959.55 1018.79 961.468C1020.14 962.269 1021.77 963.238 1023.71 964.475C1054.09 983.803 1085 1002.25 1117.28 1018.25C1153.52 1036.21 1190.85 1051.35 1230.2 1061.08C1255.36 1067.29 1280.84 1071.14 1306.83 1070.57C1312.06 1070.46 1317.27 1069.97 1322.48 1069.48L1322.49 1069.48C1325.07 1069.24 1327.65 1069 1330.23 1068.8C1330.62 1068.77 1331.05 1068.68 1331.48 1068.59L1331.48 1068.59C1332.85 1068.29 1334.28 1067.98 1334.76 1069.59C1335.12 1070.79 1333.88 1072.8 1332.86 1074.05C1311.9 1099.66 1287.6 1121.42 1258.51 1137.49C1231.17 1152.61 1201.94 1157.59 1171.03 1153.23C1153.39 1150.74 1136.54 1145.41 1120.04 1138.87C1076.82 1121.72 1035.01 1101.57 994.222 1079.27C983.269 1073.28 972.318 1067.3 961.331 1061.39C958.01 1059.6 954.595 1057.97 951.154 1056.44C950.521 1056.16 949.762 1056.17 949.002 1056.18C948.771 1056.19 948.539 1056.19 948.312 1056.19C948.204 1056.18 948.097 1056.18 947.991 1056.17C948.013 1056.52 948.016 1056.87 948.019 1057.22C948.025 1058 948.031 1058.77 948.248 1059.49C950.519 1067.09 952.827 1074.68 955.134 1082.27C956.288 1086.07 957.441 1089.86 958.59 1093.66C961.282 1102.57 963.955 1111.49 967.583 1123.6L969.323 1129.41L969.315 1129.41C969.839 1131.3 970.378 1133.25 970.932 1135.26ZM761.295 281.594L761.297 281.6L761.299 281.608C764.315 294.245 767.332 306.884 770.424 319.506C776.009 342.304 781.653 365.091 787.297 387.879L787.3 387.892C789.467 396.64 791.634 405.388 793.797 414.137L793.834 414.286C794.096 415.363 794.361 416.446 794.78 417.462C794.941 417.851 795.633 418.292 796.016 418.24C796.452 418.183 797.014 417.666 797.163 417.227C797.998 414.756 798.762 412.259 799.48 409.756C825.327 318.809 851.172 227.853 877.009 136.9C879.994 126.396 882.966 115.888 885.938 105.38L885.965 105.283C889.299 93.4954 892.633 81.7076 895.986 69.9247C897.424 64.8649 898.542 59.8575 897.239 54.5255C896.3 50.6839 895.451 46.8192 894.602 42.9547L894.601 42.9498C893.52 38.03 892.439 33.1105 891.173 28.2393C871.472 -47.5074 851.71 -123.237 831.948 -198.967L831.907 -199.124L825.302 -224.438C823.616 -230.893 821.828 -237.328 819.983 -243.739C819.809 -244.369 818.823 -245.289 818.396 -245.198C817.732 -245.05 816.972 -244.271 816.701 -243.582C815.554 -240.608 814.501 -237.588 813.554 -234.544C809.348 -221.008 805.138 -207.474 800.927 -193.939L800.871 -193.757C788.73 -154.732 776.589 -115.704 764.566 -76.6448C754.041 -42.4568 743.612 -8.23935 733.183 25.9781C727.967 43.09 722.752 60.2018 717.524 77.3099L717.495 77.4069C716.229 81.5479 714.99 85.6011 715.914 90.079C716.575 93.3096 717.127 96.5638 717.68 99.8176L717.68 99.8185C718.439 104.29 719.198 108.761 720.239 113.17C723.494 126.96 726.897 140.713 730.299 154.465L730.301 154.47L730.305 154.487C731.917 161.002 733.529 167.516 735.125 174.034C740.6 196.406 746.06 218.776 751.519 241.146L751.576 241.38C753.388 248.802 755.199 256.224 757.011 263.646L757.005 263.657C758.44 269.635 759.868 275.614 761.295 281.594ZM882.549 732.281C885.521 744.696 888.493 757.11 891.467 769.534C893.238 776.938 895.004 784.344 896.77 791.748C899.851 804.665 902.932 817.582 906.037 830.495C910.242 847.989 914.47 865.469 918.784 882.934C918.974 883.711 919.518 884.404 920.063 885.098C920.318 885.423 920.573 885.748 920.793 886.082C920.963 885.786 921.154 885.494 921.344 885.202C921.761 884.564 922.179 883.925 922.389 883.229C922.909 881.474 923.371 879.701 923.833 877.927C924.322 876.05 924.811 874.172 925.37 872.312C930.862 854.087 936.342 835.859 941.822 817.63L941.838 817.578L941.841 817.565C956.735 768.022 971.629 718.482 986.76 669.016C996.948 635.706 1006.66 602.31 1014.03 568.243C1015.6 560.96 1015.49 554.052 1013.48 546.819C989.566 460.984 966.96 374.814 947.054 287.952C946.211 284.282 945.162 280.651 944.073 277.04C943.882 276.415 942.856 275.479 942.508 275.594C941.835 275.807 941.136 276.578 940.851 277.28C939.876 279.7 939.022 282.168 938.219 284.658C933.059 300.641 927.893 316.622 922.726 332.603L922.712 332.647C908.427 376.835 894.142 421.023 879.975 465.247C871.829 490.671 863.868 516.15 855.906 541.63C852.965 551.042 850.024 560.454 847.074 569.863L846.987 570.138C845.896 573.601 844.845 576.942 845.815 580.863C850.808 601.142 855.688 621.448 860.568 641.756L860.569 641.762C863.011 651.923 865.453 662.084 867.91 672.243C871.044 685.208 874.218 698.166 877.392 711.125L877.417 711.227C879.136 718.245 880.855 725.264 882.569 732.285L882.549 732.281ZM521.121 90.921C525.585 106.022 527.383 121.544 526.988 137.302C525.769 186.42 509.472 229.822 477.349 267.128C459.138 288.282 438.898 307.395 418.001 325.859C381.188 358.39 342.171 387.953 300.334 413.751C300.001 413.956 299.654 414.146 299.309 414.336L299.308 414.337C298.63 414.709 297.953 415.08 297.375 415.563C296.504 416.287 295.706 417.1 294.907 417.913L294.906 417.914C294.539 418.289 294.171 418.663 293.797 419.028C294.255 419.253 294.706 419.512 295.157 419.772C296.146 420.341 297.134 420.91 298.192 421.102C313.32 423.858 328.462 426.502 343.613 429.143C410.344 440.749 477.077 452.345 543.811 463.941L543.815 463.941C570.822 468.634 597.83 473.327 624.837 478.021C625.361 478.111 625.885 478.2 626.41 478.288L626.417 478.289L626.417 478.289C628.753 478.683 631.095 479.077 633.386 479.66C637.857 480.8 639.028 482.193 639.326 486.962C639.511 489.904 639.385 492.877 639.26 495.832L639.231 496.52C637.911 530.207 639.172 563.785 643.055 597.271C643.291 599.303 643.57 601.328 643.849 603.353L643.85 603.356C644.204 605.928 644.559 608.499 644.824 611.084C645.19 614.696 644.699 615.013 640.963 614.474C632.07 613.171 623.18 611.846 614.29 610.521L614.248 610.515L614.236 610.513C593.887 607.481 573.537 604.448 553.147 601.684C535.873 599.336 518.578 597.139 501.285 594.943L501.276 594.941C477.426 591.912 453.577 588.883 429.786 585.458C408.334 582.369 386.93 578.939 365.527 575.509L365.515 575.507C342.526 571.823 319.538 568.139 296.493 564.877C255.335 559.051 214.129 553.575 172.922 548.098C148.284 544.823 123.646 541.549 99.0179 538.199C82.6736 535.977 66.3551 533.557 50.0388 531.137C42.541 530.025 35.0437 528.913 27.5445 527.82C27.4175 527.803 27.2881 527.789 27.1574 527.776L27.1536 527.775C26.9954 527.759 26.8353 527.742 26.6757 527.717C18.4061 526.336 16.7526 524.407 18.6617 516.019C19.1995 513.646 19.7326 511.271 20.2659 508.895C23.3563 495.128 26.4502 481.344 30.4779 467.847C59.4506 370.787 84.9478 272.789 109.395 174.522C136.515 65.4869 163.499 -43.5797 190.483 -152.647C207.119 -219.885 223.754 -287.123 240.421 -354.355C244.439 -370.565 248.65 -386.722 252.861 -402.882L252.861 -402.884C254.796 -410.307 256.731 -417.731 258.647 -425.16C258.682 -425.298 258.717 -425.435 258.752 -425.572C258.933 -426.28 259.114 -426.986 259.321 -427.687C260.917 -433.055 260.927 -433.055 266.361 -432.955L266.412 -432.954C270.017 -432.887 273.623 -432.806 277.23 -432.725L277.232 -432.725H277.232C286.09 -432.525 294.95 -432.325 303.808 -432.335C335.993 -432.361 367.262 -438.215 398.058 -447.218C424.374 -454.91 449.341 -465.681 473.133 -479.234L473.555 -479.474C475.179 -480.398 476.804 -481.322 478.464 -482.172C478.789 -482.336 479.186 -482.364 479.585 -482.391C479.769 -482.404 479.954 -482.417 480.133 -482.444C480.165 -482.212 480.225 -481.97 480.285 -481.728C480.414 -481.209 480.543 -480.689 480.4 -480.268C479.342 -477.265 478.189 -474.28 476.96 -471.339C472.22 -460.04 467.45 -448.753 462.68 -437.467L462.679 -437.465C452.762 -414 442.845 -390.534 433.198 -366.954C406.592 -301.917 383.515 -235.589 361.54 -168.869C320.755 -45.0596 284.861 80.1348 255.764 207.235C251.563 225.577 247.749 244.008 243.935 262.441L243.935 262.443C242.929 267.305 241.923 272.168 240.909 277.028C240.525 278.875 240.485 280.792 240.445 282.71C240.426 283.62 240.407 284.529 240.351 285.432C242.929 286.101 244.745 284.763 246.533 283.445C247.047 283.067 247.559 282.69 248.085 282.362C300.938 249.48 350.824 212.728 395.259 168.91C418.266 146.213 439.231 121.849 456.135 94.1713C468.178 74.461 477.528 53.6428 482.14 30.882C482.37 29.7524 482.644 28.6194 483.01 27.5244C483.513 26.0119 484.666 26.0002 485.604 26.9066C487.686 28.9149 489.775 30.9484 491.557 33.2114C505.179 50.4876 515.587 69.4385 521.148 90.9225L521.121 90.921ZM472.5 852.032C472.542 851.753 472.587 851.455 472.6 851.162C473.669 851.356 474.685 851.535 475.665 851.707C477.43 852.017 479.077 852.306 480.713 852.632C523.265 861.134 565.818 869.639 608.371 878.143C650.858 886.634 693.344 895.126 735.83 903.615L736.59 903.767C739.178 904.288 741.772 904.809 744.382 905.199C746.672 905.541 747.819 904.104 746.805 902.198C745.806 900.327 744.668 898.526 743.531 896.726L743.224 896.24C726.941 870.42 713.144 843.299 701.364 815.168C690.927 790.262 682.061 764.767 674.764 738.767C673.313 733.585 670.829 731.137 665.536 730.197C658.066 728.863 650.63 727.345 643.194 725.828C635.57 724.272 627.946 722.717 620.285 721.359C453.404 691.767 286.507 662.231 119.615 632.696C88.5991 627.207 57.5831 621.719 26.5675 616.229C25.1496 615.98 23.7318 615.728 22.314 615.477C16.3057 614.412 10.2966 613.347 4.2701 612.411C3.4406 612.28 2.5439 612.569 1.64809 612.857C1.23829 612.988 0.828686 613.12 0.425781 613.212C0.613296 613.588 0.783125 613.978 0.952795 614.367C1.33435 615.243 1.71512 616.118 2.29442 616.833C3.32582 618.11 4.53114 619.256 5.7358 620.4C6.0077 620.659 6.27956 620.917 6.54938 621.177C16.1489 630.44 25.7569 639.701 35.3794 648.948C159.458 768.259 283.536 887.567 407.614 1006.88C534.665 1129.04 661.715 1251.21 788.767 1373.38C795.557 1379.91 802.342 1386.44 809.128 1392.97C824.075 1407.36 839.023 1421.75 854.014 1436.1C856.143 1438.14 858.639 1439.83 861.104 1441.5L861.565 1441.81C862.1 1442.18 863.382 1441.98 863.961 1441.55C864.479 1441.18 864.896 1440 864.693 1439.4C863.251 1435 861.771 1430.6 860.048 1426.29C854.867 1413.34 850.147 1400.25 847.123 1386.61C846.095 1381.95 845.055 1377.3 844.016 1372.65C841.638 1362.01 839.261 1351.37 837.015 1340.7C828.468 1300.12 826.236 1259.14 829.621 1217.83C829.739 1216.42 829.817 1215.01 829.894 1213.59C829.976 1212.11 830.058 1210.63 830.186 1209.15C830.675 1203.57 828.576 1198.92 825.047 1194.81C823.687 1193.23 822.167 1191.76 820.658 1190.31L820.177 1189.84C809.815 1179.84 799.45 1169.83 789.086 1159.83C771.274 1142.63 753.463 1125.44 735.666 1108.23C649.734 1025.17 563.816 942.096 477.905 859.01C476.033 857.206 474.249 855.296 472.556 853.324C472.343 853.077 472.417 852.589 472.5 852.032Z" fill="white"/>
</svg>
