<svg width="1335" height="1960" viewBox="0 0 1335 1960" fill="none" xmlns="http://www.w3.org/2000/svg">
<path fill-rule="evenodd" clip-rule="evenodd" d="M970.506 1652.56L972.325 1659.15L972.326 1659.15C976.482 1674.21 981.274 1691.56 986.13 1708.9C987.035 1712.14 986.361 1714.38 983.625 1716.41C979.907 1719.17 976.372 1722.2 972.892 1725.26C946.133 1748.84 925.578 1776.97 911.117 1809.57C910.532 1810.88 909.971 1812.21 909.41 1813.54L909.409 1813.55C908.616 1815.43 907.824 1817.3 906.963 1819.14C906.759 1819.58 906.26 1819.88 905.762 1820.18C905.537 1820.31 905.312 1820.45 905.114 1820.6C905.028 1820.44 904.929 1820.28 904.83 1820.13C904.615 1819.79 904.401 1819.46 904.318 1819.09C903.832 1816.94 903.378 1814.78 902.924 1812.63C902.126 1808.83 901.328 1805.04 900.355 1801.29C889.357 1758.86 878.339 1716.43 867.322 1674.01L867.238 1673.68L867.223 1673.62C856.169 1631.06 845.115 1588.49 834.081 1545.92C809.097 1449.55 784.157 1353.17 759.223 1256.78C753.02 1232.82 746.834 1208.85 740.649 1184.88L740.631 1184.81C732.608 1153.72 724.584 1122.63 716.526 1091.55C709.6 1064.84 702.642 1038.14 695.684 1011.44L695.682 1011.44C687.561 980.278 679.44 949.117 671.371 917.945C661.782 880.896 652.229 843.838 642.676 806.78C632.594 767.671 622.513 728.562 612.389 689.465C602.886 652.744 593.33 616.038 583.774 579.332L583.717 579.115C576.693 552.133 569.668 525.15 562.665 498.162C540.661 413.364 518.686 328.559 496.71 243.749L496.667 243.582C492.228 226.452 487.789 209.321 483.35 192.19C481.897 186.575 480.475 180.941 479.248 175.263C478.468 171.657 479.256 170.716 482.951 169.803C483.447 169.682 483.961 169.605 484.471 169.53L484.666 169.501C500.894 167.055 514.878 159.629 527.849 150.007C547.453 135.461 563.129 117.357 576.01 96.7282C576.505 95.9361 576.99 95.1364 577.475 94.3363C578.495 92.6543 579.516 90.9705 580.63 89.3523C581.043 88.7525 581.68 88.3096 582.316 87.8668L582.317 87.8665C582.604 87.6668 582.891 87.467 583.158 87.2529C583.343 87.5296 583.565 87.7991 583.786 88.0685L583.787 88.0689C584.26 88.6453 584.733 89.2211 584.855 89.8644C585.621 93.8798 586.334 97.9073 587.046 101.935L587.048 101.944L587.049 101.948C587.7 105.63 588.351 109.311 589.043 112.984C590.7 121.791 592.333 130.603 593.966 139.415L593.967 139.418C598.151 161.988 602.335 184.559 606.903 207.052C612.505 234.632 618.768 262.084 625.072 289.525C631.607 317.954 638.283 346.348 644.958 374.741L644.965 374.768C648.117 388.177 651.27 401.586 654.407 414.998C655.118 418.043 655.801 421.095 656.484 424.147L656.485 424.153C657.259 427.613 658.033 431.072 658.848 434.523C659.011 435.21 659.757 436.242 660.258 436.257C660.886 436.273 661.806 435.549 662.132 434.898C662.71 433.768 663.077 432.517 663.44 431.28L663.44 431.279C663.486 431.123 663.532 430.967 663.578 430.812C667.666 416.993 671.771 403.179 675.876 389.365L675.894 389.303C694.677 326.096 713.46 262.887 730.651 199.219C741.464 159.149 751.001 118.781 759.88 78.2523L759.899 78.1676C761.891 69.085 761.927 68.917 771.085 67.6369C785.196 65.6688 797.772 60.014 809.512 52.2144C828.137 39.8454 843.138 23.8436 856.294 5.93956C856.725 5.35353 857.079 4.68274 857.437 4.0069L857.437 4.00663V4.00649C858.393 2.19828 859.369 0.353984 861.862 0C862.126 0.779638 862.41 1.55408 862.693 2.32825L862.694 2.33096L862.694 2.3314C863.299 3.98403 863.903 5.63545 864.323 7.33354C873.304 43.376 882.254 79.4362 891.168 115.497C891.753 117.867 892.349 120.235 892.946 122.603L892.946 122.604C895.044 130.93 897.144 139.261 898.747 147.681C900.202 155.329 901.105 163.202 901.188 170.985C901.665 218.622 905.385 265.994 911.601 313.21C915.919 346.015 921.453 378.61 927.776 411.087C938.111 464.148 951.732 516.354 968.343 567.77C982.719 612.277 999.689 655.778 1020.99 697.475C1024.33 704.003 1028 710.357 1031.67 716.71L1031.67 716.716C1033.51 719.893 1035.35 723.07 1037.14 726.269C1037.38 726.699 1037.63 727.128 1037.88 727.558L1037.88 727.565C1038.8 729.143 1039.72 730.734 1040.28 732.43C1040.98 734.538 1041.69 736.644 1042.39 738.751C1045.1 746.828 1047.82 754.912 1050.08 763.113C1063.35 811.173 1076.58 859.243 1089.81 907.312C1105.69 965.026 1121.57 1022.74 1137.52 1080.44C1139.78 1088.63 1139.45 1096.15 1136.73 1104.22C1096.54 1223.57 1056.5 1342.98 1016.56 1462.42C1015.78 1464.75 1015.09 1466.62 1014.52 1468.15C1013.26 1471.53 1012.63 1473.23 1013.09 1474.56C1013.55 1475.9 1015.15 1476.85 1018.37 1478.77C1019.71 1479.57 1021.34 1480.54 1023.29 1481.78C1053.67 1501.1 1084.57 1519.55 1116.86 1535.55C1153.1 1553.51 1190.42 1568.65 1229.78 1578.38C1254.93 1584.59 1280.42 1588.44 1306.41 1587.87C1311.63 1587.76 1316.85 1587.27 1322.06 1586.78L1322.06 1586.78C1324.64 1586.54 1327.23 1586.3 1329.81 1586.1C1330.2 1586.07 1330.62 1585.98 1331.06 1585.89L1331.06 1585.89C1332.42 1585.59 1333.85 1585.28 1334.34 1586.89C1334.7 1588.09 1333.45 1590.1 1332.43 1591.35C1311.47 1616.97 1287.17 1638.72 1258.09 1654.79C1230.74 1669.91 1201.51 1674.89 1170.61 1670.53C1152.96 1668.04 1136.11 1662.72 1119.62 1656.17C1076.4 1639.02 1034.58 1618.87 993.796 1596.57C982.843 1590.58 971.892 1584.6 960.905 1578.69C957.584 1576.9 954.17 1575.27 950.728 1573.74C950.095 1573.46 949.336 1573.47 948.576 1573.48C948.345 1573.49 948.114 1573.49 947.886 1573.49C947.778 1573.49 947.671 1573.48 947.565 1573.48C947.587 1573.82 947.59 1574.17 947.593 1574.52C947.599 1575.3 947.606 1576.07 947.823 1576.79C950.093 1584.39 952.401 1591.98 954.708 1599.58C955.862 1603.37 957.015 1607.16 958.164 1610.96C960.856 1619.87 963.529 1628.79 967.157 1640.9L968.898 1646.71L968.889 1646.71C969.413 1648.6 969.952 1650.56 970.506 1652.56ZM760.87 798.895L760.871 798.901L760.873 798.908C763.889 811.546 766.906 824.185 769.998 836.807C775.583 859.605 781.227 882.392 786.871 905.179L786.875 905.193C789.041 913.941 791.208 922.689 793.371 931.438L793.408 931.587C793.671 932.664 793.935 933.747 794.354 934.762C794.516 935.151 795.207 935.593 795.59 935.541C796.026 935.484 796.588 934.967 796.737 934.528C797.572 932.056 798.336 929.559 799.054 927.057C824.901 836.11 850.746 745.154 876.583 654.2C879.568 643.697 882.54 633.189 885.512 622.681L885.539 622.583C888.873 610.796 892.207 599.008 895.56 587.225C896.998 582.166 898.116 577.158 896.814 571.826C895.875 567.985 895.025 564.12 894.176 560.255L894.175 560.251C893.094 555.331 892.013 550.411 890.747 545.54C871.046 469.793 851.284 394.063 831.522 318.334L831.482 318.177L824.876 292.863C823.19 286.408 821.402 279.972 819.557 273.562C819.383 272.932 818.397 272.012 817.97 272.103C817.306 272.251 816.546 273.03 816.276 273.719C815.128 276.693 814.075 279.713 813.128 282.757C808.922 296.293 804.712 309.827 800.502 323.361L800.445 323.544C788.304 362.569 776.163 401.597 764.141 440.656C753.615 474.844 743.186 509.061 732.757 543.279C727.542 560.391 722.326 577.503 717.099 594.611L717.069 594.708C715.803 598.849 714.564 602.902 715.488 607.38C716.149 610.61 716.702 613.865 717.254 617.118L717.254 617.119C718.013 621.591 718.772 626.062 719.813 630.47C723.068 644.26 726.471 658.014 729.874 671.766L729.875 671.771L729.879 671.787C731.491 678.302 733.103 684.817 734.699 691.335C740.174 713.706 745.634 736.077 751.094 758.446L751.151 758.681C752.962 766.103 754.774 773.525 756.586 780.947L756.58 780.958C758.015 786.935 759.442 792.915 760.87 798.895ZM882.124 1249.58C885.096 1262 888.067 1274.41 891.042 1286.83C892.812 1294.24 894.579 1301.64 896.345 1309.05C899.425 1321.97 902.506 1334.88 905.611 1347.8C909.816 1365.29 914.044 1382.77 918.358 1400.23C918.548 1401.01 919.092 1401.7 919.637 1402.4C919.892 1402.72 920.148 1403.05 920.367 1403.38C920.537 1403.09 920.728 1402.79 920.919 1402.5C921.335 1401.87 921.753 1401.23 921.963 1400.53C922.483 1398.77 922.945 1397 923.407 1395.23C923.896 1393.35 924.385 1391.47 924.944 1389.61C930.436 1371.39 935.916 1353.16 941.396 1334.93L941.412 1334.88L941.416 1334.87C956.31 1285.32 971.203 1235.78 986.334 1186.32C996.522 1153.01 1006.23 1119.61 1013.6 1085.54C1015.18 1078.26 1015.06 1071.35 1013.05 1064.12C989.141 978.284 966.535 892.115 946.628 805.253C945.785 801.583 944.736 797.952 943.647 794.341C943.457 793.716 942.43 792.78 942.082 792.894C941.409 793.107 940.71 793.879 940.425 794.581C939.45 797.001 938.596 799.469 937.794 801.959C932.633 817.941 927.467 833.922 922.3 849.903L922.286 849.948C908.001 894.136 893.717 938.324 879.549 982.547C871.403 1007.97 863.442 1033.45 855.48 1058.93C852.539 1068.34 849.598 1077.75 846.648 1087.16L846.561 1087.44C845.471 1090.9 844.419 1094.24 845.389 1098.16C850.382 1118.44 855.262 1138.75 860.142 1159.06L860.144 1159.06C862.586 1169.22 865.028 1179.39 867.484 1189.54C870.618 1202.51 873.792 1215.47 876.966 1228.43L876.991 1228.53C878.71 1235.55 880.43 1242.56 882.143 1249.59L882.124 1249.58ZM520.695 608.222C525.159 623.323 526.958 638.845 526.562 654.603C525.344 703.72 509.046 747.123 476.924 784.429C458.712 805.583 438.473 824.696 417.575 843.159C380.762 875.691 341.745 905.254 299.908 931.052C299.575 931.257 299.229 931.447 298.883 931.637L298.882 931.637C298.204 932.01 297.527 932.381 296.949 932.864C296.079 933.587 295.28 934.401 294.481 935.214L294.481 935.215C294.113 935.589 293.746 935.964 293.371 936.329C293.829 936.553 294.281 936.813 294.732 937.073C295.72 937.642 296.708 938.211 297.767 938.403C312.894 941.159 328.036 943.802 343.187 946.444C409.918 958.049 476.651 969.645 543.385 981.242L543.39 981.242C570.397 985.935 597.404 990.628 624.412 995.322C624.935 995.412 625.46 995.5 625.984 995.589L625.991 995.59L625.992 995.59C628.327 995.984 630.669 996.378 632.96 996.961C637.432 998.101 638.603 999.493 638.9 1004.26C639.085 1007.2 638.959 1010.18 638.835 1013.13L638.806 1013.82C637.486 1047.51 638.747 1081.09 642.63 1114.57C642.865 1116.6 643.144 1118.63 643.424 1120.65L643.424 1120.66C643.779 1123.23 644.133 1125.8 644.398 1128.39C644.764 1132 644.274 1132.31 640.538 1131.77C631.645 1130.47 622.755 1129.15 613.865 1127.82L613.822 1127.82L613.811 1127.81C593.462 1124.78 573.111 1121.75 552.722 1118.98C535.447 1116.64 518.153 1114.44 500.859 1112.24L500.851 1112.24C477 1109.21 453.152 1106.18 429.361 1102.76C407.908 1099.67 386.504 1096.24 365.102 1092.81L365.089 1092.81C342.1 1089.12 319.112 1085.44 296.067 1082.18C254.91 1076.35 213.703 1070.88 172.496 1065.4C147.859 1062.12 123.22 1058.85 98.5921 1055.5C82.2478 1053.28 65.9293 1050.86 49.613 1048.44C42.1152 1047.33 34.6179 1046.21 27.1187 1045.12C26.9918 1045.1 26.8623 1045.09 26.7317 1045.08L26.7278 1045.08C26.5696 1045.06 26.4096 1045.04 26.25 1045.02C17.9803 1043.64 16.3269 1041.71 18.2359 1033.32C18.7737 1030.95 19.3068 1028.57 19.8401 1026.2C22.9305 1012.43 26.0244 998.645 30.0522 985.148C59.0248 888.087 84.522 790.09 108.969 691.823C136.089 582.788 163.073 473.721 190.058 364.654C206.693 297.416 223.328 230.178 239.996 162.946C244.013 146.736 248.224 130.578 252.435 114.419L252.436 114.417C254.37 106.994 256.305 99.5698 258.221 92.1405C258.256 92.0031 258.291 91.8659 258.326 91.7287C258.507 91.0205 258.688 90.3145 258.896 89.6138C260.492 84.2455 260.501 84.2457 265.936 84.3455L265.986 84.3464C269.591 84.4135 273.197 84.4948 276.804 84.576L276.806 84.5761H276.806C285.664 84.7757 294.525 84.9754 303.382 84.966C335.567 84.9395 366.836 79.0855 397.632 70.0825C423.948 62.3906 448.915 51.6201 472.707 38.0667L473.129 37.8266C474.753 36.903 476.378 35.9788 478.038 35.1288C478.364 34.9648 478.76 34.9372 479.159 34.9094C479.343 34.8966 479.528 34.8837 479.707 34.8572C479.74 35.0893 479.8 35.3311 479.859 35.5729C479.988 36.0923 480.117 36.6114 479.974 37.033C478.916 40.0361 477.763 43.0204 476.534 45.9622C471.795 57.2612 467.025 68.5476 462.254 79.8342L462.254 79.8361C452.336 103.301 442.419 126.767 432.772 150.347C406.167 215.383 383.09 281.712 361.114 348.432C320.329 472.241 284.435 597.436 255.339 724.536C251.138 742.877 247.324 761.309 243.509 779.742L243.509 779.744C242.503 784.606 241.497 789.468 240.484 794.329C240.099 796.175 240.059 798.093 240.019 800.011C240 800.92 239.981 801.83 239.925 802.732C242.503 803.402 244.319 802.064 246.107 800.746C246.621 800.367 247.133 799.99 247.66 799.663C300.512 766.781 350.398 730.029 394.833 686.21C417.84 663.513 438.805 639.149 455.71 611.472C467.752 591.762 477.102 570.944 481.714 548.183C481.944 547.053 482.218 545.92 482.584 544.825C483.087 543.313 484.24 543.301 485.178 544.207C487.26 546.216 489.349 548.249 491.131 550.512C504.754 567.788 515.162 586.739 520.722 608.223L520.695 608.222ZM472.075 1369.33C472.117 1369.05 472.161 1368.76 472.174 1368.46C473.244 1368.66 474.259 1368.84 475.239 1369.01C477.004 1369.32 478.652 1369.61 480.287 1369.93C522.84 1378.44 565.392 1386.94 607.945 1395.44C650.432 1403.94 692.918 1412.43 735.404 1420.92L736.164 1421.07C738.753 1421.59 741.346 1422.11 743.956 1422.5C746.246 1422.84 747.394 1421.4 746.379 1419.5C745.381 1417.63 744.242 1415.83 743.105 1414.03L742.798 1413.54C726.515 1387.72 712.719 1360.6 700.938 1332.47C690.501 1307.56 681.636 1282.07 674.338 1256.07C672.887 1250.89 670.403 1248.44 665.111 1247.5C657.64 1246.16 650.204 1244.65 642.768 1243.13C635.144 1241.57 627.521 1240.02 619.859 1238.66C452.978 1209.07 286.081 1179.53 119.189 1150C88.1733 1144.51 57.1573 1139.02 26.1417 1133.53C24.7238 1133.28 23.306 1133.03 21.8883 1132.78C15.8799 1131.71 9.87086 1130.65 3.84432 1129.71C3.01482 1129.58 2.11812 1129.87 1.22231 1130.16C0.812513 1130.29 0.402904 1130.42 0 1130.51C0.187515 1130.89 0.357343 1131.28 0.527014 1131.67C0.908574 1132.54 1.28933 1133.42 1.86864 1134.13C2.90004 1135.41 4.10536 1136.56 5.31002 1137.7C5.58192 1137.96 5.85378 1138.22 6.1236 1138.48C15.7232 1147.74 25.3312 1157 34.9536 1166.25C159.032 1285.56 283.11 1404.87 407.188 1524.18C534.239 1646.34 661.29 1768.51 788.341 1890.68C795.131 1897.21 801.916 1903.74 808.702 1910.27C823.65 1924.66 838.597 1939.05 853.588 1953.4C855.717 1955.44 858.213 1957.13 860.678 1958.8L861.139 1959.11C861.674 1959.48 862.956 1959.28 863.535 1958.86C864.054 1958.48 864.471 1957.3 864.268 1956.7C862.825 1952.3 861.345 1947.9 859.622 1943.59C854.442 1930.64 849.721 1917.55 846.697 1903.91C845.669 1899.25 844.63 1894.6 843.591 1889.95C841.213 1879.31 838.835 1868.67 836.589 1858C828.043 1817.42 825.81 1776.44 829.195 1735.13C829.313 1733.72 829.391 1732.31 829.469 1730.89C829.55 1729.41 829.632 1727.93 829.76 1726.45C830.249 1720.87 828.15 1716.22 824.621 1712.11C823.261 1710.53 821.741 1709.07 820.232 1707.61L819.751 1707.15C809.389 1697.14 799.025 1687.13 788.66 1677.13C770.849 1659.93 753.037 1642.74 735.241 1625.53C649.308 1542.47 563.391 1459.4 477.479 1376.31C475.607 1374.51 473.823 1372.6 472.13 1370.63C471.917 1370.38 471.991 1369.89 472.075 1369.33Z" fill="white"/>
</svg>
