<svg width="29" height="29" viewBox="0 0 29 29" fill="none" xmlns="http://www.w3.org/2000/svg">
<path d="M26.7692 6.96H21.1923C21.1923 5.11409 20.4872 3.34379 19.2322 2.03854C17.9771 0.733283 16.2749 0 14.5 0C12.7251 0 11.0229 0.733283 9.76782 2.03854C8.51277 3.34379 7.80769 5.11409 7.80769 6.96H2.23077C1.63913 6.96 1.07173 7.20443 0.653377 7.63951C0.235027 8.0746 0 8.6647 0 9.28V26.68C0 27.2953 0.235027 27.8854 0.653377 28.3205C1.07173 28.7556 1.63913 29 2.23077 29H26.7692C27.3609 29 27.9283 28.7556 28.3466 28.3205C28.765 27.8854 29 27.2953 29 26.68V9.28C29 8.6647 28.765 8.0746 28.3466 7.63951C27.9283 7.20443 27.3609 6.96 26.7692 6.96ZM14.5 2.32C15.6833 2.32 16.8181 2.80886 17.6548 3.67902C18.4915 4.54919 18.9615 5.7294 18.9615 6.96H10.0385C10.0385 5.7294 10.5085 4.54919 11.3452 3.67902C12.1819 2.80886 13.3167 2.32 14.5 2.32ZM26.7692 26.68H2.23077V9.28H26.7692V26.68Z" fill="#E1E1F1"/>
</svg>
