<svg width="90" height="90" viewBox="0 0 44 44" fill="none" xmlns="http://www.w3.org/2000/svg">
  <style>
    .favicon { color: black }
    @media (prefers-color-scheme: dark) {
      .favicon { color: white }
    }
  </style>
  <path
    class="favicon"
    d="M21.8464 24.3044C21.7981 23.7184 22.2697 22.4324 22.5115 21.8626L15.4977 18.9631C16.8279 18.7189 18.9341 17.8643 19.8209 17.4675C22.6749 15.978 22.3604 13.6522 21.8464 12.6755C21.145 14.4092 17.0798 15.7175 15.1349 16.155C16.054 13.4691 21.8868 6.42865 24.6884 3.24418C23.1405 3.58602 20.7984 3.22383 19.8209 3L8.84651 19.5124L21.8464 24.3044Z"
    fill="currentColor" />
  <path 
    class="favicon"
    fill-rule="evenodd"
    clip-rule="evenodd"
    d="M23.3884 38.5277C23.5295 38.2327 24.1926 37.5083 25.7163 36.9711V34.1936C26.845 35.2517 29.4893 37.3679 31.0372 37.3679C32.5851 37.3679 33.6574 36.6964 34 36.3606C33.355 36.2996 31.7144 35.9089 30.3116 34.8345C28.9088 33.7602 27.9938 32.9625 27.7116 32.698L32.7605 26.1968V18.8715C32.1659 17.7015 31.394 13.8475 33.0628 7.79197L33.2442 4.49558C32.8915 4.77028 31.8837 5.31357 30.6744 5.28916L26.3512 11.5462L26.714 4.67871C26.3209 5.04498 25.2265 5.77751 23.993 5.77751L23.3884 38.5277ZM30.5837 15.3309L26.2 21.588L26.3512 14.69L30.7047 9.34859L30.5837 15.3309ZM30.1302 25.3116L26.1395 30.8361L26.3512 24.7622L30.2814 19.7261L30.1302 25.3116Z"
    fill="currentColor" />
  <path
    class="favicon"
    d="M22.4209 36.1775C22.0883 36.8897 21.4716 39.1198 21.6651 41L8 21.0691L21.6651 26.7462C21.6651 27.2956 21.786 28.7729 22.2698 30.2867L16.7372 27.8755L22.4209 36.1775Z"
    fill="currentColor" />
</svg>